<?xml version="1.0" encoding="UTF-8"?>
<svg width="100px" height="100px" viewBox="0 0 100 100" version="1.1" xmlns="http://www.w3.org/2000/svg" xmlns:xlink="http://www.w3.org/1999/xlink">
    <title>logo-icon</title>
    <defs>
        <linearGradient x1="50%" y1="0%" x2="50%" y2="100%" id="linearGradient-1">
            <stop stop-color="#95BE5B" offset="0%"></stop>
            <stop stop-color="#5C8A2E" offset="100%"></stop>
        </linearGradient>
        <linearGradient x1="50%" y1="0%" x2="50%" y2="100%" id="linearGradient-2">
            <stop stop-color="#7EAAE8" offset="0%"></stop>
            <stop stop-color="#4771CC" offset="100%"></stop>
        </linearGradient>
    </defs>
    <g id="Logo" stroke="none" stroke-width="1" fill="none" fill-rule="evenodd">
        <g id="logo-icon">
            <polygon id="形状结合" fill="url(#linearGradient-1)" fill-rule="nonzero" points="71.1293435 9.45945946 87.0559846 31.9015444 80.6205405 31.9013514 92.0559846 48.7258686 79.0213514 48.7256757 96.3622495 72.8281854 78.3589189 72.8281081 78.3590732 90.6274132 64.1216216 90.6274132 64.1216216 72.8281081 46.0135135 72.8281854 63.3543243 48.7256757 50.0675676 48.7258686 61.502973 31.9013514 55.2027027 31.9015444"></polygon>
            <path d="M29.9662162,9.45945946 C36.1634268,9.45945946 41.1872586,14.4832913 41.1872586,20.6805019 C41.1872586,21.5889298 41.0793084,22.4721446 40.8755362,23.3180181 C45.9867019,25.1589128 49.7315895,29.8814674 50.11583,35.5212355 C50.11583,35.5212355 45.7722008,42.1975546 37.0849422,55.550193 L49.8745173,55.550193 C49.7904486,55.6582816 45.6076943,61.4497873 37.3262549,72.9247105 L37.3262549,90.5405405 L23.0888031,90.5405405 L23.0888856,72.5049714 C21.9268929,72.7794605 20.7149649,72.9247105 19.469112,72.9247105 C10.8063444,72.9247105 3.78378378,65.9021497 3.78378378,57.2393822 C3.78378378,51.605073 6.75451627,46.6646154 11.2150861,43.8989046 C9.8699317,41.7497405 9.09266408,39.2088838 9.09266408,36.4864865 C9.09266408,30.1769435 13.2677301,24.8425394 19.0059011,23.0952353 C18.8350976,22.3177341 18.7451738,21.5096194 18.7451738,20.6805019 C18.7451738,14.4832913 23.7690056,9.45945946 29.9662162,9.45945946 Z" id="形状结合" fill="url(#linearGradient-2)" fill-rule="nonzero"></path>
            <rect id="矩形" x="0" y="0" width="100" height="100"></rect>
        </g>
    </g>
</svg>