<?xml version="1.0" encoding="UTF-8"?>
<svg width="80px" height="80px" viewBox="0 0 80 80" version="1.1" xmlns="http://www.w3.org/2000/svg" xmlns:xlink="http://www.w3.org/1999/xlink">
    <title>编组 3备份 7</title>
    <defs>
        <linearGradient x1="50%" y1="0%" x2="50%" y2="99.3963068%" id="linearGradient-1">
            <stop stop-color="#8BE240" offset="0%"></stop>
            <stop stop-color="#2A4786" offset="100%"></stop>
        </linearGradient>
    </defs>
    <g id="Logo" stroke="none" stroke-width="1" fill="none" fill-rule="evenodd">
        <g id="编组-3备份-7">
            <rect id="矩形" fill="url(#linearGradient-1)" x="0" y="0" width="80" height="80" rx="25"></rect>
            <g id="Oasis" transform="translate(6, 27)" fill="#FFFFFF" fill-rule="nonzero">
                <path d="M9.38125,25.3234375 C7.61979167,25.3234375 6.03151042,24.9276042 4.61640625,24.1359375 C3.20130208,23.3442708 2.078125,22.1815104 1.246875,20.6476563 C0.415625,19.1138021 0,17.278125 0,15.140625 C0,12.1322917 0.54921875,9.48020833 1.64765625,7.184375 C2.74609375,4.88854167 4.24036458,3.1171875 6.13046875,1.8703125 C8.02057292,0.6234375 10.1135417,0 12.409375,0 C14.1708333,0 15.7591146,0.395833333 17.1742188,1.1875 C18.5893229,1.97916667 19.7125,3.14192708 20.54375,4.67578125 C21.375,6.20963542 21.790625,8.0453125 21.790625,10.1828125 C21.790625,13.1911458 21.2414063,15.8432292 20.1429687,18.1390625 C19.0445313,20.4348958 17.5502604,22.20625 15.6601563,23.453125 C13.7700521,24.7 11.6770833,25.3234375 9.38125,25.3234375 Z M9.678125,21.8203125 C11.221875,21.8203125 12.5825521,21.3453125 13.7601563,20.3953125 C14.9377604,19.4453125 15.8432292,18.1242187 16.4765625,16.4320312 C17.1098958,14.7398437 17.4265625,12.825 17.4265625,10.6875 C17.4265625,8.33229167 16.9317708,6.54609375 15.9421875,5.32890625 C14.9526042,4.11171875 13.6760417,3.503125 12.1125,3.503125 C10.5885417,3.503125 9.24270833,3.97317708 8.075,4.91328125 C6.90729167,5.85338542 5.996875,7.16953125 5.34375,8.86171875 C4.690625,10.5539062 4.3640625,12.4786458 4.3640625,14.6359375 C4.3640625,16.9911458 4.85885417,18.7773438 5.8484375,19.9945312 C6.83802083,21.2117187 8.11458333,21.8203125 9.678125,21.8203125 Z" id="形状"></path>
                <path d="M26.8078125,25.3234375 C25.5807292,25.3234375 24.6010417,24.878125 23.86875,23.9875 C23.1364583,23.096875 22.7703125,21.9291667 22.7703125,20.484375 C22.7703125,18.9010417 23.1364583,17.4018229 23.86875,15.9867188 C24.6010417,14.5716146 25.5757813,13.4335937 26.7929688,12.5726563 C28.0101563,11.7117187 29.3015625,11.28125 30.6671875,11.28125 C31.1026042,11.28125 31.3945313,11.3653646 31.5429688,11.5335937 C31.6914062,11.7018229 31.8151042,12.0036458 31.9140625,12.4390625 C32.3296875,12.3598958 32.7651042,12.3203125 33.2203125,12.3203125 C34.1901042,12.3203125 34.675,12.6666667 34.675,13.359375 C34.675,13.775 34.5265625,14.7645833 34.2296875,16.328125 C33.7744792,18.6041667 33.546875,20.1875 33.546875,21.078125 C33.546875,21.375 33.6210938,21.6125 33.7695312,21.790625 C33.9179688,21.96875 34.1109375,22.0578125 34.3484375,22.0578125 C34.7244792,22.0578125 35.1796875,21.8153646 35.7140625,21.3304687 C36.2484375,20.8455729 36.9708333,20.0588542 37.88125,18.9703125 C38.11875,18.6932292 38.3859375,18.5546875 38.6828125,18.5546875 C38.9401042,18.5546875 39.1429688,18.6734375 39.2914063,18.9109375 C39.4398438,19.1484375 39.5140625,19.475 39.5140625,19.890625 C39.5140625,20.6822917 39.3260417,21.2958333 38.95,21.73125 C38.1385417,22.740625 37.2776042,23.5916667 36.3671875,24.284375 C35.4567708,24.9770833 34.5760417,25.3234375 33.725,25.3234375 C33.071875,25.3234375 32.4731771,25.1007813 31.9289063,24.6554687 C31.3846354,24.2101562 30.9739583,23.6015625 30.696875,22.8296875 C29.6677083,24.4921875 28.3713542,25.3234375 26.8078125,25.3234375 Z M27.8765625,22.325 C28.3119792,22.325 28.7276042,22.0677083 29.1234375,21.553125 C29.5192708,21.0385417 29.80625,20.3557292 29.984375,19.5046875 L31.0828125,14.0421875 C30.2515625,14.0619792 29.4846354,14.3736979 28.7820313,14.9773438 C28.0794271,15.5809896 27.5203125,16.3776042 27.1046875,17.3671875 C26.6890625,18.3567708 26.48125,19.4057292 26.48125,20.5140625 C26.48125,21.1276042 26.6049479,21.5828125 26.8523438,21.8796875 C27.0997396,22.1765625 27.4411458,22.325 27.8765625,22.325 Z" id="形状"></path>
                <path d="M42.63125,25.9765625 C41.6020833,25.9765625 40.8153646,25.7390625 40.2710938,25.2640625 C39.7268229,24.7890625 39.4546875,24.2546875 39.4546875,23.6609375 C39.4546875,23.1463542 39.6427083,22.7010417 40.01875,22.325 C40.3947917,21.9489583 40.9489583,21.7609375 41.68125,21.7609375 C41.9385417,21.7609375 42.2403646,21.7856771 42.5867188,21.8351562 C42.9330729,21.8846354 43.1953125,21.9192708 43.3734375,21.9390625 C43.3536458,21.4244792 43.2398438,20.9395833 43.0320313,20.484375 C42.8242188,20.0291667 42.5619792,19.5888021 42.2453125,19.1632812 C41.9286458,18.7377604 41.6317708,18.3666667 41.3546875,18.05 C40.7411458,19.2177083 40.1325521,20.1875 39.5289063,20.959375 C38.9252604,21.73125 38.2671875,22.4635417 37.5546875,23.15625 C37.1984375,23.5125 36.8223958,23.690625 36.4265625,23.690625 C36.1098958,23.690625 35.8526042,23.5768229 35.6546875,23.3492187 C35.4567708,23.1216146 35.3578125,22.8395833 35.3578125,22.503125 C35.3578125,22.1072917 35.4963542,21.7411458 35.7734375,21.4046875 L36.159375,20.9296875 C37.2479167,19.5838542 38.0692708,18.4755208 38.6234375,17.6046875 C38.9598958,17.0307292 39.3557292,16.2638021 39.8109375,15.3039062 C40.2661458,14.3440104 40.7114583,13.3494792 41.146875,12.3203125 C41.5229167,11.4494792 42.3046875,11.0140625 43.4921875,11.0140625 C44.0463542,11.0140625 44.4322917,11.0635417 44.65,11.1625 C44.8677083,11.2614583 44.9765625,11.4197917 44.9765625,11.6375 C44.9765625,11.75625 44.9369792,11.9442708 44.8578125,12.2015625 C44.7786458,12.4588542 44.6697917,12.7161458 44.53125,12.9734375 C44.175,13.6859375 43.996875,14.2895833 43.996875,14.784375 C43.996875,15.08125 44.1007813,15.4078125 44.3085938,15.7640625 C44.5164063,16.1203125 44.8380208,16.565625 45.2734375,17.1 C45.9067708,17.93125 46.3867188,18.6388021 46.7132813,19.2226562 C47.0398438,19.8065104 47.203125,20.4447917 47.203125,21.1375 C47.203125,21.3354167 47.1833333,21.6125 47.14375,21.96875 C48.1135417,21.5927083 49.2515625,20.5932292 50.5578125,18.9703125 C50.7953125,18.6932292 51.0625,18.5546875 51.359375,18.5546875 C51.6166667,18.5546875 51.8195313,18.6734375 51.9679688,18.9109375 C52.1164063,19.1484375 52.190625,19.475 52.190625,19.890625 C52.190625,20.6427083 52.0026042,21.25625 51.6265625,21.73125 C50.6369792,22.9583333 49.6919271,23.7945312 48.7914063,24.2398437 C47.8908854,24.6851562 46.7776042,24.9276042 45.4515625,24.9671875 C44.6598958,25.6401042 43.7197917,25.9765625 42.63125,25.9765625 Z" id="路径"></path>
                <path d="M53.675,9.38125 C52.84375,9.38125 52.2203125,9.18828125 51.8046875,8.80234375 C51.3890625,8.41640625 51.18125,7.87708333 51.18125,7.184375 C51.18125,6.49166667 51.4533854,5.91276042 51.9976562,5.44765625 C52.5419271,4.98255208 53.2197917,4.75 54.03125,4.75 C54.7635417,4.75 55.3572917,4.928125 55.8125,5.284375 C56.2677083,5.640625 56.4953125,6.1453125 56.4953125,6.7984375 C56.4953125,7.59010417 56.2380208,8.21848958 55.7234375,8.68359375 C55.2088542,9.14869792 54.5260417,9.38125 53.675,9.38125 Z M53.4375,25.3234375 C52.1510417,25.3234375 51.2158854,24.8682292 50.6320313,23.9578125 C50.0481771,23.0473958 49.75625,21.8401042 49.75625,20.3359375 C49.75625,19.4453125 49.8700521,18.3023438 50.0976562,16.9070313 C50.3252604,15.5117188 50.6171875,14.2104167 50.9734375,13.003125 C51.1515625,12.3697917 51.3890625,11.934375 51.6859375,11.696875 C51.9828125,11.459375 52.4578125,11.340625 53.1109375,11.340625 C54.1203125,11.340625 54.625,11.6770833 54.625,12.35 C54.625,12.8447917 54.4369792,13.9927083 54.0609375,15.79375 C53.5859375,17.9708333 53.3484375,19.4453125 53.3484375,20.2171875 C53.3484375,20.8109375 53.4276042,21.2661458 53.5859375,21.5828125 C53.7442708,21.8994792 54.0114583,22.0578125 54.3875,22.0578125 C54.74375,22.0578125 55.1890625,21.8104167 55.7234375,21.315625 C56.2578125,20.8208333 56.9703125,20.0390625 57.8609375,18.9703125 C58.0984375,18.6932292 58.365625,18.5546875 58.6625,18.5546875 C58.9197917,18.5546875 59.1226563,18.6734375 59.2710938,18.9109375 C59.4195313,19.1484375 59.49375,19.475 59.49375,19.890625 C59.49375,20.6822917 59.3057292,21.2958333 58.9296875,21.73125 C56.9703125,24.1260417 55.1395833,25.3234375 53.4375,25.3234375 Z" id="形状"></path>
                <path d="M62.6109375,25.9765625 C61.5817708,25.9765625 60.7950521,25.7390625 60.2507812,25.2640625 C59.7065104,24.7890625 59.434375,24.2546875 59.434375,23.6609375 C59.434375,23.1463542 59.6223958,22.7010417 59.9984375,22.325 C60.3744792,21.9489583 60.9286458,21.7609375 61.6609375,21.7609375 C61.9182292,21.7609375 62.2200521,21.7856771 62.5664063,21.8351562 C62.9127604,21.8846354 63.175,21.9192708 63.353125,21.9390625 C63.3333333,21.4244792 63.2195312,20.9395833 63.0117187,20.484375 C62.8039063,20.0291667 62.5416667,19.5888021 62.225,19.1632812 C61.9083333,18.7377604 61.6114583,18.3666667 61.334375,18.05 C60.7208333,19.2177083 60.1122396,20.1875 59.5085937,20.959375 C58.9049479,21.73125 58.246875,22.4635417 57.534375,23.15625 C57.178125,23.5125 56.8020833,23.690625 56.40625,23.690625 C56.0895833,23.690625 55.8322917,23.5768229 55.634375,23.3492187 C55.4364583,23.1216146 55.3375,22.8395833 55.3375,22.503125 C55.3375,22.1072917 55.4760417,21.7411458 55.753125,21.4046875 L56.1390625,20.9296875 C57.2276042,19.5838542 58.0489583,18.4755208 58.603125,17.6046875 C58.959375,17.0307292 59.3205729,16.3479167 59.6867188,15.55625 C60.0528646,14.7645833 60.5328125,13.6859375 61.1265625,12.3203125 C61.5026042,11.4494792 62.284375,11.0140625 63.471875,11.0140625 C64.0260417,11.0140625 64.4119792,11.0635417 64.6296875,11.1625 C64.8473958,11.2614583 64.95625,11.4197917 64.95625,11.6375 C64.95625,11.75625 64.9166667,11.9442708 64.8375,12.2015625 C64.7583333,12.4588542 64.6494792,12.7161458 64.5109375,12.9734375 C64.1546875,13.6859375 63.9765625,14.2895833 63.9765625,14.784375 C63.9765625,15.08125 64.0804687,15.4078125 64.2882812,15.7640625 C64.4960937,16.1203125 64.8177083,16.565625 65.253125,17.1 C65.8864583,17.93125 66.3664062,18.6388021 66.6929687,19.2226562 C67.0195312,19.8065104 67.1828125,20.4447917 67.1828125,21.1375 C67.1828125,21.96875 66.9898437,22.7554687 66.6039062,23.4976562 C66.2179687,24.2398437 65.6786458,24.8385417 64.9859375,25.29375 C64.2932292,25.7489583 63.5015625,25.9765625 62.6109375,25.9765625 Z" id="路径"></path>
            </g>
        </g>
    </g>
</svg>