<?xml version="1.0" encoding="UTF-8"?>
<svg width="50px" height="20px" viewBox="0 0 50 20" version="1.1" xmlns="http://www.w3.org/2000/svg" xmlns:xlink="http://www.w3.org/1999/xlink">
    <title>Oasis备份 14</title>
    <defs>
        <linearGradient x1="50%" y1="0%" x2="50%" y2="100%" id="linearGradient-1">
            <stop stop-color="#8BE240" offset="0%"></stop>
            <stop stop-color="#3265D4" offset="100%"></stop>
        </linearGradient>
        <linearGradient x1="50%" y1="0%" x2="50%" y2="100%" id="linearGradient-2">
            <stop stop-color="#8BE240" offset="0%"></stop>
            <stop stop-color="#3265D4" offset="100%"></stop>
        </linearGradient>
        <linearGradient x1="50%" y1="0%" x2="50%" y2="100%" id="linearGradient-3">
            <stop stop-color="#8BE240" offset="0.0928758741%"></stop>
            <stop stop-color="#3265D4" offset="99.9590253%"></stop>
        </linearGradient>
        <linearGradient x1="50%" y1="0%" x2="50%" y2="100%" id="linearGradient-4">
            <stop stop-color="#8BE240" offset="0%"></stop>
            <stop stop-color="#3265D4" offset="100%"></stop>
        </linearGradient>
        <linearGradient x1="50%" y1="0%" x2="50%" y2="100%" id="linearGradient-5">
            <stop stop-color="#8BE240" offset="0%"></stop>
            <stop stop-color="#3265D4" offset="100%"></stop>
        </linearGradient>
    </defs>
    <g id="Logo" stroke="none" stroke-width="1" fill="none" fill-rule="evenodd">
        <g id="Oasis备份-14" fill-rule="nonzero">
            <path d="M6.99292073,18.8641779 C5.67990396,18.8641779 4.49597593,18.56931 3.44113662,17.979574 C2.38629732,17.3898381 1.54906472,16.5236635 0.929438831,15.3810501 C0.309812944,14.2384368 0,12.8709866 0,11.2786996 C0,9.03770306 0.409395675,7.06208771 1.22818703,5.35185352 C2.04697838,3.64161934 3.16082967,2.32208521 4.56974092,1.39325112 C5.97865216,0.464417041 7.53878163,0 9.25012931,0 C10.5631461,0 11.7470741,0.294867963 12.8019134,0.884603888 C13.8567527,1.47433981 14.6939853,2.34051445 15.3136112,3.48312781 C15.9332371,4.62574117 16.24305,5.99319134 16.24305,7.58547834 C16.24305,9.82647486 15.8336544,11.8020902 15.014863,13.5123244 C14.1960717,15.2225586 13.0822204,16.5420927 11.6733091,17.4709268 C10.2643979,18.3997609 8.70426841,18.8641779 6.99292073,18.8641779 Z M7.21421569,16.2545964 C8.36494948,16.2545964 9.37921804,15.9007549 10.2570214,15.1930718 C11.1348247,14.4853887 11.8097743,13.5012668 12.2818703,12.2407063 C12.7539662,10.9801458 12.9900141,9.55372199 12.9900141,7.961435 C12.9900141,6.20697062 12.6211892,4.87637893 11.8835393,3.96965995 C11.1458895,3.06294096 10.1943211,2.60958147 9.02883435,2.60958147 C7.89285356,2.60958147 6.88964974,2.95973718 6.0192229,3.66004859 C5.14879606,4.36036 4.47015819,5.34079598 3.98330927,6.60135652 C3.49646036,7.86191706 3.25303591,9.29571253 3.25303591,10.9027429 C3.25303591,12.6572073 3.62186084,13.987799 4.35951071,14.894518 C5.09716057,15.801237 6.0487289,16.2545964 7.21421569,16.2545964 Z" id="形状" fill="url(#linearGradient-1)"></path>
            <path d="M19.9649052,18.8641779 C19.0510124,18.8641779 18.3213722,18.5329476 17.7759845,17.8704868 C17.2305969,17.2080261 16.9579031,16.3394665 16.9579031,15.264808 C16.9579031,14.0871 17.2305969,12.9719578 17.7759845,11.9193805 C18.3213722,10.8668048 19.0473273,10.0203272 19.95385,9.37994851 C20.8603727,8.73956981 21.8221711,8.41938046 22.8392454,8.41938046 C23.1635299,8.41938046 23.380948,8.4819462 23.4914995,8.60707767 C23.602051,8.73220914 23.6941773,8.95670972 23.7678784,9.28057941 C24.0774227,9.22169401 24.4017072,9.19225131 24.740732,9.19225131 C25.4630021,9.19225131 25.8241371,9.44987492 25.8241371,9.96512216 C25.8241371,10.2742705 25.7135856,11.010338 25.4924825,12.1733246 C25.1534578,13.8662798 24.9839454,15.0439877 24.9839454,15.7064485 C24.9839454,15.9272687 25.0392212,16.1039249 25.1497727,16.236417 C25.2603242,16.3689092 25.4040413,16.4351553 25.5809237,16.4351553 C25.8609877,16.4351553 26.2000124,16.2548187 26.597998,15.8941457 C26.9959835,15.5334726 27.5340011,14.948299 28.2120505,14.1386247 C28.388933,13.9325258 28.5879258,13.8294764 28.8090289,13.8294764 C29.0006516,13.8294764 29.1517387,13.9178045 29.2622902,14.0944607 C29.3728418,14.2711169 29.4281176,14.5140191 29.4281176,14.8231675 C29.4281176,15.4120215 29.2880856,15.8683833 29.0080217,16.192253 C28.4036732,16.9430418 27.7624743,17.5760598 27.0844248,18.0913071 C26.4063753,18.6065543 25.7504361,18.8641779 25.1166072,18.8641779 C24.6301804,18.8641779 24.1842892,18.6985627 23.7789335,18.3673324 C23.3735779,18.036102 23.0677186,17.5834205 22.8613557,17.0092879 C22.094865,18.2458812 21.1293815,18.8641779 19.9649052,18.8641779 Z M20.7608763,16.6338935 C21.0851608,16.6338935 21.3947052,16.4425159 21.6895093,16.0597608 C21.9843134,15.6770058 22.1980464,15.1691192 22.3307083,14.5361012 L23.1487897,10.4730087 C22.529701,10.4877301 21.9585181,10.7195913 21.4352407,11.1685925 C20.9119634,11.6175936 20.4955526,12.210128 20.1860083,12.9461954 C19.8764639,13.6822629 19.7216918,14.4624944 19.7216918,15.28689 C19.7216918,15.7432518 19.8138181,16.0818429 19.9980706,16.3026631 C20.1823232,16.5234834 20.4365918,16.6338935 20.7608763,16.6338935 Z" id="形状" fill="url(#linearGradient-2)"></path>
            <path d="M31.753106,19.3407466 C30.9858145,19.3407466 30.3992792,19.1636093 29.9935001,18.8093347 C29.5877209,18.4550601 29.3848313,18.0565011 29.3848313,17.6136579 C29.3848313,17.2298603 29.5250096,16.8977279 29.8053661,16.6172605 C30.0857226,16.3367931 30.4988796,16.1965594 31.044837,16.1965594 C31.2366598,16.1965594 31.4616828,16.2150112 31.7199059,16.2519148 C31.978129,16.2888184 32.1736408,16.3146509 32.3064412,16.3294124 C32.2916856,15.9456149 32.2068409,15.5839595 32.051907,15.2444463 C31.8969732,14.9049332 31.7014614,14.5764911 31.4653717,14.25912 C31.229282,13.941749 31.0079479,13.664972 30.8013695,13.4287889 C30.3439457,14.299714 29.8902108,15.0230247 29.4401649,15.598721 C28.9901189,16.1744172 28.499495,16.7205906 27.9682932,17.2372411 C27.7026923,17.502947 27.4223358,17.6358 27.1272237,17.6358 C26.891134,17.6358 26.6993111,17.5509217 26.5517551,17.3811651 C26.404199,17.2114085 26.330421,17.001058 26.330421,16.7501135 C26.330421,16.4548846 26.4337102,16.1817979 26.6402887,15.9308534 L26.928023,15.5765788 C27.7395813,14.5728007 28.3519389,13.7461599 28.7650959,13.0966565 C29.0159412,12.6685746 29.3110533,12.0965687 29.6504322,11.3806388 C29.9898112,10.6647088 30.3218123,9.92294632 30.6464356,9.15535131 C30.9267921,8.50584784 31.5096385,8.18109611 32.3949749,8.18109611 C32.8081318,8.18109611 33.0958661,8.21799971 33.2581778,8.29180693 C33.4204895,8.36561414 33.5016453,8.48370568 33.5016453,8.64608155 C33.5016453,8.7346502 33.4721341,8.8748839 33.4131117,9.06678266 C33.3540892,9.25868141 33.2729334,9.45058016 33.1696442,9.64247891 C32.9040433,10.1738908 32.7712428,10.6241148 32.7712428,10.9931509 C32.7712428,11.2145725 32.8487097,11.4581363 33.0036436,11.7238423 C33.1585775,11.9895483 33.3983561,12.3216807 33.7229794,12.7202397 C34.1951588,13.3402203 34.5529822,13.8679418 34.7964497,14.3034044 C35.0399172,14.7388669 35.1616509,15.2149235 35.1616509,15.7315739 C35.1616509,15.8791884 35.1468953,16.0858486 35.1173841,16.3515545 C35.8404088,16.0710871 36.6888561,15.3256343 37.6627261,14.115196 C37.8397933,13.9085358 38.038994,13.8052057 38.2603281,13.8052057 C38.452151,13.8052057 38.6033959,13.8937743 38.714063,14.0709117 C38.82473,14.248049 38.8800635,14.4916128 38.8800635,14.8016031 C38.8800635,15.3625379 38.7398853,15.8201426 38.4595288,16.1744172 C37.7217485,17.0896266 37.0171683,17.7132976 36.3457883,18.04543 C35.6744082,18.3775625 34.8444054,18.5583902 33.8557798,18.5879131 C33.2655556,19.0898021 32.5646643,19.3407466 31.753106,19.3407466 Z" id="路径" fill="url(#linearGradient-3)"></path>
            <path d="M39.978012,6.98537629 C39.3576009,6.98537629 38.8922926,6.84159191 38.582087,6.55402315 C38.2718815,6.2664544 38.1167787,5.8645955 38.1167787,5.34844645 C38.1167787,4.83229741 38.3198895,4.40094427 38.726111,4.05438706 C39.1323326,3.70782984 39.638263,3.53455123 40.2439024,3.53455123 C40.7904551,3.53455123 41.2336058,3.66727527 41.5733548,3.93272335 C41.9131037,4.19817143 42.0829782,4.57422288 42.0829782,5.0608777 C42.0829782,5.65076232 41.8909462,6.11898324 41.5068822,6.46554046 C41.1228181,6.81209768 40.6131948,6.98537629 39.978012,6.98537629 Z M39.8007517,18.8641779 C38.8405916,18.8641779 38.1426292,18.5249943 37.7068642,17.8466269 C37.2710993,17.1682596 37.0532168,16.2686856 37.0532168,15.1479048 C37.0532168,14.4842846 37.1381541,13.6326387 37.3080285,12.592967 C37.477903,11.5532953 37.6957855,10.5836725 37.9616759,9.68409845 C38.0946212,9.21219075 38.2718815,8.8877542 38.4934569,8.71078881 C38.7150323,8.53382343 39.0695529,8.44534073 39.5570187,8.44534073 C40.3103751,8.44534073 40.6870532,8.6960417 40.6870532,9.19744363 C40.6870532,9.56612152 40.5467221,10.4214542 40.26606,11.7634417 C39.9115394,13.3856245 39.734279,14.4842846 39.734279,15.0594221 C39.734279,15.5018356 39.7933658,15.8410192 39.9115394,16.0769731 C40.0297129,16.3129269 40.2291307,16.4309038 40.5097929,16.4309038 C40.7756834,16.4309038 41.1080465,16.2465649 41.5068822,15.877887 C41.9057179,15.5092091 42.4374988,14.926698 43.102225,14.1303538 C43.2794853,13.9238942 43.4789031,13.8206644 43.7004785,13.8206644 C43.8925105,13.8206644 44.0439204,13.9091471 44.1547081,14.0861125 C44.2654957,14.2630778 44.3208896,14.5064053 44.3208896,14.8160947 C44.3208896,15.4059793 44.1805585,15.8631399 43.8998964,16.1875764 C42.4374988,17.9719774 41.0711172,18.8641779 39.8007517,18.8641779 Z" id="形状" fill="url(#linearGradient-4)"></path>
            <path d="M46.5971322,19.3407466 C45.8311187,19.3407466 45.2455603,19.1636093 44.840457,18.8093347 C44.4353537,18.4550601 44.232802,18.0565011 44.232802,17.6136579 C44.232802,17.2298603 44.3727468,16.8977279 44.6526364,16.6172605 C44.9325259,16.3367931 45.3449947,16.1965594 45.8900428,16.1965594 C46.0815462,16.1965594 46.3061944,16.2150112 46.5639874,16.2519148 C46.8217804,16.2888184 47.0169666,16.3146509 47.1495458,16.3294124 C47.1348148,15.9456149 47.0501114,15.5839595 46.8954356,15.2444463 C46.7407598,14.9049332 46.5455736,14.5764911 46.3098772,14.25912 C46.0741807,13.941749 45.8532152,13.664972 45.6469808,13.4287889 C45.1903189,14.299714 44.7373398,15.0230247 44.2880434,15.598721 C43.838747,16.1744172 43.3489403,16.7205906 42.8186232,17.2372411 C42.5534647,17.502947 42.2735751,17.6358 41.9789545,17.6358 C41.7432581,17.6358 41.5517547,17.5509217 41.4044444,17.3811651 C41.2571341,17.2114085 41.183479,17.001058 41.183479,16.7501135 C41.183479,16.4548846 41.2865962,16.1817979 41.4928306,15.9308534 L41.7800856,15.5765788 C42.5902923,14.5728007 43.20163,13.7461599 43.6140988,13.0966565 C43.8792573,12.6685746 44.1480986,12.1593049 44.4206226,11.5688472 C44.6931467,10.9783895 45.0503741,10.1738908 45.492305,9.15535131 C45.7721946,8.50584784 46.3540702,8.18109611 47.237932,8.18109611 C47.6504008,8.18109611 47.9376559,8.21799971 48.0996972,8.29180693 C48.2617385,8.36561414 48.3427592,8.48370568 48.3427592,8.64608155 C48.3427592,8.7346502 48.3132971,8.8748839 48.254373,9.06678266 C48.1954489,9.25868141 48.1144282,9.45058016 48.011311,9.64247891 C47.7461525,10.1738908 47.6135733,10.6241148 47.6135733,10.9931509 C47.6135733,11.2145725 47.6909112,11.4581363 47.845587,11.7238423 C48.0002628,11.9895483 48.239642,12.3216807 48.5637246,12.7202397 C49.0351176,13.3402203 49.392345,13.8679418 49.635407,14.3034044 C49.878469,14.7388669 50,15.2149235 50,15.7315739 C50,16.3515545 49.8563725,16.9383219 49.5691174,17.491876 C49.2818623,18.04543 48.8804418,18.4919637 48.3648557,18.8314769 C47.8492697,19.17099 47.2600285,19.3407466 46.5971322,19.3407466 Z" id="路径" fill="url(#linearGradient-5)"></path>
        </g>
    </g>
</svg>