<?xml version="1.0" encoding="UTF-8"?>
<svg width="30px" height="12px" viewBox="0 0 30 12" version="1.1" xmlns="http://www.w3.org/2000/svg" xmlns:xlink="http://www.w3.org/1999/xlink">
    <title>Oasis备份 16</title>
    <defs>
        <linearGradient x1="50%" y1="0%" x2="50%" y2="100%" id="linearGradient-1">
            <stop stop-color="#8BE240" offset="0%"></stop>
            <stop stop-color="#3265D4" offset="100%"></stop>
        </linearGradient>
        <linearGradient x1="50%" y1="0%" x2="50%" y2="100%" id="linearGradient-2">
            <stop stop-color="#8BE240" offset="0%"></stop>
            <stop stop-color="#3265D4" offset="100%"></stop>
        </linearGradient>
        <linearGradient x1="50%" y1="0%" x2="50%" y2="100%" id="linearGradient-3">
            <stop stop-color="#8BE240" offset="0.0928758741%"></stop>
            <stop stop-color="#3265D4" offset="99.9590253%"></stop>
        </linearGradient>
        <linearGradient x1="50%" y1="0%" x2="50%" y2="100%" id="linearGradient-4">
            <stop stop-color="#8BE240" offset="0%"></stop>
            <stop stop-color="#3265D4" offset="100%"></stop>
        </linearGradient>
        <linearGradient x1="50%" y1="0%" x2="50%" y2="100%" id="linearGradient-5">
            <stop stop-color="#8BE240" offset="0%"></stop>
            <stop stop-color="#3265D4" offset="100%"></stop>
        </linearGradient>
    </defs>
    <g id="Logo" stroke="none" stroke-width="1" fill="none" fill-rule="evenodd">
        <g id="Oasis备份-16" fill-rule="nonzero">
            <path d="M4.19575244,11.3185068 C3.40794238,11.3185068 2.69758556,11.141586 2.06468197,10.7877444 C1.43177839,10.4339029 0.929438831,9.91419808 0.557663298,9.22863007 C0.185887766,8.54306205 0,7.72259195 0,6.76721975 C0,5.42262184 0.245637405,4.23725263 0.736912216,3.21111211 C1.22818703,2.1849716 1.8964978,1.39325112 2.74184455,0.835950674 C3.5871913,0.278650225 4.52326898,0 5.55007759,0 C6.33788764,0 7.04824447,0.176920778 7.68114805,0.530762333 C8.31405163,0.884603888 8.81639119,1.40430867 9.18816673,2.08987669 C9.55994226,2.7754447 9.74583002,3.59591481 9.74583002,4.55128701 C9.74583002,5.89588492 9.50019262,7.08125413 9.00891781,8.10739464 C8.517643,9.13353515 7.84933222,9.92525563 7.00398547,10.4825561 C6.15863873,11.0398565 5.22256105,11.3185068 4.19575244,11.3185068 Z M4.32852941,9.75275787 C5.01896969,9.75275787 5.62753082,9.54045294 6.15421283,9.11584307 C6.68089483,8.6912332 7.08586461,8.10076011 7.36912216,7.34442378 C7.65237971,6.58808746 7.79400848,5.7322332 7.79400848,4.776861 C7.79400848,3.72418237 7.57271352,2.92582736 7.1301236,2.38179597 C6.68753368,1.83776458 6.11659269,1.56574888 5.41730061,1.56574888 C4.73571214,1.56574888 4.13378985,1.77584231 3.61153374,2.19602915 C3.08927764,2.616216 2.68209491,3.20447759 2.38998556,3.96081391 C2.09787622,4.71715023 1.95182154,5.57742752 1.95182154,6.54164575 C1.95182154,7.59432438 2.1731165,8.39267939 2.61570642,8.93671078 C3.05829634,9.48074217 3.62923734,9.75275787 4.32852941,9.75275787 Z" id="形状" fill="url(#linearGradient-1)"></path>
            <path d="M11.9789431,11.3185068 C11.4306074,11.3185068 10.9928233,11.1197685 10.6655907,10.7222921 C10.3383581,10.3248157 10.1747419,9.80367989 10.1747419,9.15888478 C10.1747419,8.45226001 10.3383581,7.78317467 10.6655907,7.15162878 C10.9928233,6.52008289 11.4283964,6.01219633 11.97231,5.62796911 C12.5162236,5.24374189 13.0933027,5.05162828 13.7035472,5.05162828 C13.8981179,5.05162828 14.0285688,5.08916772 14.0948997,5.1642466 C14.1612306,5.23932548 14.2165064,5.37402583 14.260727,5.56834764 C14.4464536,5.5330164 14.6410243,5.51535079 14.8444392,5.51535079 C15.2778012,5.51535079 15.4944823,5.66992495 15.4944823,5.97907329 C15.4944823,6.1645623 15.4281514,6.60620278 15.2954895,7.30399475 C15.0920747,8.31976786 14.9903672,9.02639264 14.9903672,9.42386907 C14.9903672,9.55636122 15.0235327,9.66235493 15.0898636,9.74185022 C15.1561945,9.82134551 15.2424248,9.86109315 15.3485542,9.86109315 C15.5165926,9.86109315 15.7200074,9.75289123 15.9587988,9.5364874 C16.1975901,9.32008356 16.5204006,8.96897937 16.9272303,8.48317484 C17.0333598,8.35951551 17.1527555,8.29768584 17.2854173,8.29768584 C17.4003909,8.29768584 17.4910432,8.3506827 17.5573741,8.45667641 C17.6237051,8.56267013 17.6568705,8.70841149 17.6568705,8.89390049 C17.6568705,9.24721288 17.5728514,9.52102998 17.404813,9.71535179 C17.0422039,10.1658251 16.6574846,10.5456359 16.2506549,10.8547842 C15.8438252,11.1639326 15.4502617,11.3185068 15.0699643,11.3185068 C14.7781083,11.3185068 14.5105735,11.2191376 14.2673601,11.0203994 C14.0241467,10.8216612 13.8406311,10.5500523 13.7168134,10.2055727 C13.256919,10.9475287 12.6776289,11.3185068 11.9789431,11.3185068 Z M12.4565258,9.98033608 C12.6510965,9.98033608 12.8368231,9.86550956 13.0137056,9.63585651 C13.190588,9.40620345 13.3188278,9.10147152 13.398425,8.7216607 L13.8892738,6.28380523 C13.5178206,6.29263804 13.1751108,6.43175479 12.8611444,6.70115549 C12.547178,6.97055618 12.2973316,7.32607677 12.111605,7.76771726 C11.9258784,8.20935774 11.8330151,8.67749665 11.8330151,9.172134 C11.8330151,9.4459511 11.8882908,9.64910572 11.9988424,9.78159787 C12.1093939,9.91409001 12.2619551,9.98033608 12.4565258,9.98033608 Z" id="形状" fill="url(#linearGradient-2)"></path>
            <path d="M19.0518636,11.604448 C18.5914887,11.604448 18.2395675,11.4981656 17.9961,11.2856008 C17.7526325,11.073036 17.6308988,10.8339007 17.6308988,10.5681947 C17.6308988,10.3379162 17.7150058,10.1386367 17.8832197,9.97035629 C18.0514336,9.80207585 18.2993277,9.71793563 18.6269022,9.71793563 C18.7419959,9.71793563 18.8770097,9.72900671 19.0319436,9.75114887 C19.1868774,9.77329103 19.3041845,9.78879055 19.3838647,9.79764741 C19.3750114,9.56736891 19.3241045,9.35037571 19.2311442,9.1466678 C19.1381839,8.9429599 19.0208768,8.74589464 18.879223,8.55547203 C18.7375692,8.36504942 18.6047688,8.19898319 18.4808217,8.05727335 C18.2063674,8.57982841 17.9341265,9.01381482 17.6640989,9.35923257 C17.3940713,9.70465033 17.099697,10.0323544 16.7809759,10.3423446 C16.6216154,10.5017682 16.4534015,10.58148 16.2763342,10.58148 C16.1346804,10.58148 16.0195867,10.530553 15.931053,10.4286991 C15.8425194,10.3268451 15.7982526,10.2006348 15.7982526,10.0500681 C15.7982526,9.87293077 15.8602261,9.70907876 15.9841732,9.55851205 L16.1568138,9.34594727 C16.6437488,8.74368042 17.0111634,8.24769595 17.2590575,7.85799387 C17.4095647,7.60114477 17.586632,7.25794124 17.7902593,6.82838326 C17.9938867,6.39882528 18.1930874,5.95376779 18.3878614,5.49321079 C18.5560753,5.10350871 18.9057831,4.90865766 19.4369849,4.90865766 C19.6848791,4.90865766 19.8575197,4.93079983 19.9549067,4.97508416 C20.0522937,5.01936848 20.1009872,5.09022341 20.1009872,5.18764893 C20.1009872,5.24079012 20.0832805,5.32493034 20.047867,5.44006959 C20.0124535,5.55520885 19.96376,5.6703481 19.9017865,5.78548735 C19.742426,6.10433451 19.6627457,6.3744689 19.6627457,6.59589054 C19.6627457,6.72874352 19.7092258,6.8748818 19.8021862,7.03430538 C19.8951465,7.19372896 20.0390136,7.39300843 20.2337876,7.6321438 C20.5170953,8.00413215 20.7317893,8.32076509 20.8778698,8.58204263 C21.0239503,8.84332016 21.0969906,9.12895407 21.0969906,9.43894436 C21.0969906,9.52751302 21.0881372,9.65150913 21.0704305,9.81093271 C21.5042453,9.64265227 22.0133137,9.19538056 22.5976356,8.46911759 C22.703876,8.34512147 22.8233964,8.28312342 22.9561969,8.28312342 C23.0712906,8.28312342 23.1620376,8.33626461 23.2284378,8.44254699 C23.294838,8.54882938 23.3280381,8.69496766 23.3280381,8.88096184 C23.3280381,9.21752273 23.2439312,9.49208556 23.0757173,9.70465033 C22.6330491,10.253776 22.210301,10.6279786 21.807473,10.827258 C21.4046449,11.0265375 20.9066432,11.1350341 20.3134679,11.1527478 C19.9593334,11.4538813 19.5387986,11.604448 19.0518636,11.604448 Z" id="路径" fill="url(#linearGradient-3)"></path>
            <path d="M23.9868072,4.19122577 C23.6145605,4.19122577 23.3353755,4.10495515 23.1492522,3.93241389 C22.9631289,3.75987264 22.8700672,3.5187573 22.8700672,3.20906787 C22.8700672,2.89937844 22.9919337,2.64056656 23.2356666,2.43263223 C23.4793995,2.2246979 23.7829578,2.12073074 24.1463415,2.12073074 C24.474273,2.12073074 24.7401635,2.20036516 24.9440129,2.35963401 C25.1478622,2.51890286 25.2497869,2.74453373 25.2497869,3.03652662 C25.2497869,3.39045739 25.1345677,3.67138995 24.9041293,3.87932428 C24.6736909,4.08725861 24.3679169,4.19122577 23.9868072,4.19122577 Z M23.880451,11.3185068 C23.304355,11.3185068 22.8855775,11.1149966 22.6241185,10.7079762 C22.3626596,10.3009558 22.2319301,9.76121134 22.2319301,9.08874287 C22.2319301,8.69057075 22.2828924,8.17958319 22.3848171,7.5557802 C22.4867418,6.93197721 22.6174713,6.3502035 22.7770056,5.81045907 C22.8567727,5.52731445 22.9631289,5.33265252 23.0960741,5.22647329 C23.2290194,5.12029406 23.4417317,5.06720444 23.7342112,5.06720444 C24.186225,5.06720444 24.4122319,5.21762502 24.4122319,5.51846618 C24.4122319,5.73967291 24.3280333,6.25287254 24.159636,7.05806505 C23.9469236,8.03137468 23.8405674,8.69057075 23.8405674,9.03565325 C23.8405674,9.30110133 23.8760195,9.50461153 23.9469236,9.64618384 C24.0178277,9.78775615 24.1374784,9.8585423 24.3058757,9.8585423 C24.46541,9.8585423 24.6648279,9.74793894 24.9041293,9.5267322 C25.1434307,9.30552547 25.4624993,8.95601883 25.861335,8.47821228 C25.9676912,8.35433651 26.0873419,8.29239863 26.2202871,8.29239863 C26.3355063,8.29239863 26.4263522,8.34548824 26.4928248,8.45166747 C26.5592974,8.55784671 26.5925338,8.70384315 26.5925338,8.88965681 C26.5925338,9.24358758 26.5083351,9.51788393 26.3399378,9.71254586 C25.4624993,10.7831865 24.6426703,11.3185068 23.880451,11.3185068 Z" id="形状" fill="url(#linearGradient-4)"></path>
            <path d="M27.9582793,11.604448 C27.4986712,11.604448 27.1473362,11.4981656 26.9042742,11.2856008 C26.6612122,11.073036 26.5396812,10.8339007 26.5396812,10.5681947 C26.5396812,10.3379162 26.6236481,10.1386367 26.7915818,9.97035629 C26.9595155,9.80207585 27.2069968,9.71793563 27.5340257,9.71793563 C27.6489277,9.71793563 27.7837166,9.72900671 27.9383924,9.75114887 C28.0930683,9.77329103 28.2101799,9.78879055 28.2897275,9.79764741 C28.2808889,9.56736891 28.2300668,9.35037571 28.1372613,9.1466678 C28.0444559,8.9429599 27.9273442,8.74589464 27.7859263,8.55547203 C27.6445084,8.36504942 27.5119291,8.19898319 27.3881885,8.05727335 C27.1141914,8.57982841 26.8424039,9.01381482 26.572826,9.35923257 C26.3032482,9.70465033 26.0093642,10.0323544 25.6911739,10.3423446 C25.5320788,10.5017682 25.3641451,10.58148 25.1873727,10.58148 C25.0459548,10.58148 24.9310528,10.530553 24.8426666,10.4286991 C24.7542805,10.3268451 24.7100874,10.2006348 24.7100874,10.0500681 C24.7100874,9.87293077 24.7719577,9.70907876 24.8956983,9.55851205 L25.0680514,9.34594727 C25.5541754,8.74368042 25.920978,8.24769595 26.1684593,7.85799387 C26.3275544,7.60114477 26.4888592,7.29558291 26.6523736,6.94130829 C26.815888,6.58703368 27.0302245,6.10433451 27.295383,5.49321079 C27.4633168,5.10350871 27.8124421,4.90865766 28.3427592,4.90865766 C28.5902405,4.90865766 28.7625935,4.93079983 28.8598183,4.97508416 C28.9570431,5.01936848 29.0056555,5.09022341 29.0056555,5.18764893 C29.0056555,5.24079012 28.9879783,5.32493034 28.9526238,5.44006959 C28.9172693,5.55520885 28.8686569,5.6703481 28.8067866,5.78548735 C28.6476915,6.10433451 28.568144,6.3744689 28.568144,6.59589054 C28.568144,6.72874352 28.6145467,6.8748818 28.7073522,7.03430538 C28.8001577,7.19372896 28.9437852,7.39300843 29.1382348,7.6321438 C29.4210705,8.00413215 29.635407,8.32076509 29.7812442,8.58204263 C29.9270814,8.84332016 30,9.12895407 30,9.43894436 C30,9.81093271 29.9138235,10.1629931 29.7414704,10.4951256 C29.5691174,10.827258 29.3282651,11.0951782 29.0189134,11.2988861 C28.7095618,11.502594 28.3560171,11.604448 27.9582793,11.604448 Z" id="路径" fill="url(#linearGradient-5)"></path>
        </g>
    </g>
</svg>