<?xml version="1.0" encoding="UTF-8"?>
<svg width="80px" height="31px" viewBox="0 0 80 31" version="1.1" xmlns="http://www.w3.org/2000/svg" xmlns:xlink="http://www.w3.org/1999/xlink">
    <title>Oasis备份 12</title>
    <defs>
        <linearGradient x1="50%" y1="0%" x2="50%" y2="100%" id="linearGradient-1">
            <stop stop-color="#8BE240" offset="0%"></stop>
            <stop stop-color="#3265D4" offset="100%"></stop>
        </linearGradient>
        <linearGradient x1="50%" y1="0%" x2="50%" y2="100%" id="linearGradient-2">
            <stop stop-color="#8BE240" offset="0%"></stop>
            <stop stop-color="#3265D4" offset="100%"></stop>
        </linearGradient>
        <linearGradient x1="50%" y1="0%" x2="50%" y2="100%" id="linearGradient-3">
            <stop stop-color="#8BE240" offset="0.0928758741%"></stop>
            <stop stop-color="#3265D4" offset="99.9590253%"></stop>
        </linearGradient>
        <linearGradient x1="50%" y1="0%" x2="50%" y2="100%" id="linearGradient-4">
            <stop stop-color="#8BE240" offset="0%"></stop>
            <stop stop-color="#3265D4" offset="100%"></stop>
        </linearGradient>
        <linearGradient x1="50%" y1="0%" x2="50%" y2="100%" id="linearGradient-5">
            <stop stop-color="#8BE240" offset="0%"></stop>
            <stop stop-color="#3265D4" offset="100%"></stop>
        </linearGradient>
    </defs>
    <g id="Logo" stroke="none" stroke-width="1" fill="none" fill-rule="evenodd">
        <g id="Oasis备份-12" fill-rule="nonzero">
            <path d="M11.1886732,30.1826847 C9.08784634,30.1826847 7.19356149,29.7108959 5.5058186,28.7673184 C3.8180757,27.823741 2.47850355,26.4378615 1.48710213,24.6096802 C0.49570071,22.7814988 0,20.5935785 0,18.0459193 C0,14.4603249 0.655033081,11.2993403 1.96509924,8.56296564 C3.2751654,5.82659094 5.05732748,3.71533633 7.31158547,2.2292018 C9.56584346,0.743067266 12.0620506,0 14.8002069,0 C16.9010337,0 18.7953186,0.47178874 20.4830615,1.41536622 C22.1708044,2.3589437 23.5103765,3.74482313 24.5017779,5.5730045 C25.4931794,7.40118587 25.9888801,9.58910615 25.9888801,12.1367653 C25.9888801,15.7223598 25.333847,18.8833443 24.0237808,21.619719 C22.7137147,24.3560937 20.9315526,26.4673483 18.6772946,27.9534829 C16.4230366,29.4396174 13.9268295,30.1826847 11.1886732,30.1826847 Z M11.5427451,26.0073543 C13.3839192,26.0073543 15.0067489,25.4412078 16.4112342,24.3089149 C17.8157196,23.1766219 18.895639,21.602027 19.6509924,19.5851301 C20.4063459,17.5682332 20.7840226,15.2859552 20.7840226,12.738296 C20.7840226,9.93115299 20.1939027,7.8022063 19.0136629,6.35145592 C17.8334231,4.90070554 16.3109138,4.17533035 14.446135,4.17533035 C12.6285657,4.17533035 11.0234396,4.73557948 9.63075664,5.85607774 C8.2380737,6.976576 7.1522531,8.54527356 6.37329484,10.5621704 C5.59433658,12.5790673 5.20485745,14.87314 5.20485745,17.4443887 C5.20485745,20.2515317 5.79497734,22.3804784 6.97521713,23.8312288 C8.15545691,25.2819791 9.67796624,26.0073543 11.5427451,26.0073543 Z" id="形状" fill="url(#linearGradient-1)"></path>
            <path d="M31.9438483,30.1826847 C30.4816198,30.1826847 29.3141955,29.6527161 28.4415753,28.5927789 C27.5689551,27.5328418 27.132645,26.1431464 27.132645,24.4236928 C27.132645,22.53936 27.5689551,20.7551325 28.4415753,19.0710101 C29.3141955,17.3868877 30.4757237,16.0325235 31.92616,15.0079176 C33.3765963,13.9833117 34.9154738,13.4710087 36.5427926,13.4710087 C37.0616479,13.4710087 37.4095167,13.5711139 37.5863992,13.7713243 C37.7632817,13.9715346 37.9106837,14.3307355 38.0286054,14.848927 C38.5238763,14.7547104 39.0427316,14.7076021 39.5851712,14.7076021 C40.7408033,14.7076021 41.3186194,15.1197999 41.3186194,15.9441955 C41.3186194,16.4388328 41.1417369,17.6165408 40.787972,19.4773193 C40.2455324,22.1860476 39.9743126,24.0703804 39.9743126,25.1303175 C39.9743126,25.4836299 40.0627538,25.7662798 40.2396363,25.9782673 C40.4165188,26.1902547 40.646466,26.2962484 40.929478,26.2962484 C41.3775802,26.2962484 41.9200198,26.00771 42.5567967,25.4306331 C43.1935736,24.8535562 44.0544017,23.9172783 45.1392809,22.6217996 C45.4222928,22.2920413 45.7406813,22.1271622 46.0944462,22.1271622 C46.4010425,22.1271622 46.6427819,22.2684872 46.8196644,22.5511371 C46.9965468,22.833787 47.0849881,23.2224306 47.0849881,23.717068 C47.0849881,24.6592343 46.860937,25.3894133 46.4128347,25.9076048 C45.4458772,27.1088669 44.4199588,28.1216957 43.3350796,28.9460913 C42.2502004,29.7704869 41.2006978,30.1826847 40.1865716,30.1826847 C39.4082887,30.1826847 38.6948627,29.9177004 38.0462936,29.3877318 C37.3977246,28.8577632 36.9083497,28.1334728 36.5781691,27.2148606 C35.3517839,29.19341 33.8070103,30.1826847 31.9438483,30.1826847 Z M33.2174021,26.6142296 C33.7362573,26.6142296 34.2315283,26.3080255 34.7032149,25.6956173 C35.1749015,25.0832092 35.5168743,24.2705907 35.7291332,23.2577619 L37.0380635,16.7568139 C36.0475217,16.7803681 35.1336289,17.1513461 34.2963852,17.869748 C33.4591415,18.5881498 32.7928841,19.5362047 32.2976132,20.7139127 C31.8023423,21.8916206 31.5547068,23.1399911 31.5547068,24.459024 C31.5547068,25.1892029 31.7021089,25.7309486 31.996913,26.084261 C32.2917171,26.4375734 32.6985468,26.6142296 33.2174021,26.6142296 Z" id="形状" fill="url(#linearGradient-2)"></path>
            <path d="M50.8049697,30.9451946 C49.5773033,30.9451946 48.6388467,30.6617749 47.9896001,30.0949355 C47.3403535,29.5280961 47.0157301,28.8904018 47.0157301,28.1818526 C47.0157301,27.5677766 47.2400153,27.0363646 47.6885857,26.5876168 C48.1371562,26.1388689 48.7982073,25.914495 49.6717391,25.914495 C49.9786557,25.914495 50.3386925,25.9440179 50.7518495,26.0030637 C51.1650064,26.0621094 51.4778253,26.1034415 51.690306,26.1270598 C51.666697,25.5129838 51.5309454,24.9343352 51.2830513,24.3911141 C51.0351571,23.8478931 50.7223383,23.3223857 50.3445948,22.8145921 C49.9668513,22.3067985 49.6127167,21.8639552 49.2821912,21.4860623 C48.5503131,22.8795424 47.8243373,24.0368395 47.1042638,24.9579535 C46.3841902,25.8790675 45.599192,26.7529449 44.7492691,27.5795857 C44.3243077,28.0047153 43.8757373,28.21728 43.4035579,28.21728 C43.0258144,28.21728 42.7188978,28.0814748 42.4828081,27.8098642 C42.2467184,27.5382537 42.1286736,27.2016928 42.1286736,26.8001815 C42.1286736,26.3278154 42.2939363,25.8908767 42.6244619,25.4893655 L43.0848368,24.9225261 C44.3833301,23.3164811 45.3631023,21.9938559 46.0241534,20.9546503 C46.4255059,20.2697194 46.8976853,19.35451 47.4406916,18.209022 C47.9836979,17.0635341 48.5148997,15.8767141 49.034297,14.6485621 C49.4828674,13.6093565 50.4154217,13.0897538 51.8319598,13.0897538 C52.4930109,13.0897538 52.9533858,13.1487995 53.2130845,13.2668911 C53.4727831,13.3849826 53.6026325,13.5739291 53.6026325,13.8337305 C53.6026325,13.9754403 53.5554145,14.1998142 53.4609787,14.5068523 C53.3665428,14.8138903 53.2366935,15.1209283 53.0714307,15.4279663 C52.6464692,16.2782253 52.4339885,16.9985837 52.4339885,17.5890414 C52.4339885,17.9433161 52.5579356,18.3330181 52.8058298,18.7581477 C53.0537239,19.1832772 53.4373697,19.7146892 53.956767,20.3523835 C54.712254,21.3443524 55.2847715,22.1887069 55.6743195,22.885447 C56.0638675,23.5821871 56.2586415,24.3438775 56.2586415,25.1705183 C56.2586415,25.4067014 56.2350325,25.7373577 56.1878146,26.1624872 C57.3446541,25.7137394 58.7021698,24.5210148 60.2603617,22.5843136 C60.5436694,22.2536573 60.8623904,22.0883291 61.216525,22.0883291 C61.5234416,22.0883291 61.7654335,22.230039 61.9425008,22.5134587 C62.119568,22.7968783 62.2081017,23.1865804 62.2081017,23.6825649 C62.2081017,24.5800606 61.9838165,25.3122281 61.5352461,25.8790675 C60.3547976,27.3434026 59.2274693,28.3412761 58.1532612,28.8726881 C57.0790532,29.4041 55.7510487,29.6934243 54.1692477,29.7406609 C53.224889,30.5436834 52.1034629,30.9451946 50.8049697,30.9451946 Z" id="路径" fill="url(#linearGradient-3)"></path>
            <path d="M63.9648192,11.1766021 C62.9721614,11.1766021 62.2276681,10.9465471 61.7313392,10.486437 C61.2350104,10.026327 60.9868459,9.3833528 60.9868459,8.55751432 C60.9868459,7.73167585 61.3118232,7.04151084 61.9617776,6.48701929 C62.6117321,5.93252774 63.4212209,5.65528197 64.3902439,5.65528197 C65.2647281,5.65528197 65.9737693,5.86764043 66.5173676,6.29235736 C67.0609659,6.71707429 67.3327651,7.31875661 67.3327651,8.09740432 C67.3327651,9.04121972 67.0255139,9.79037319 66.4110114,10.3448647 C65.796509,10.8993563 64.9811116,11.1766021 63.9648192,11.1766021 Z M63.6812027,30.1826847 C62.1449466,30.1826847 61.0282067,29.6399908 60.3309828,28.5546031 C59.6337589,27.4692154 59.2851469,26.0298969 59.2851469,24.2366477 C59.2851469,23.1748553 59.4210465,21.8122218 59.6928457,20.1487472 C59.9646448,18.4852726 60.3132567,16.933876 60.7386815,15.4945575 C60.9513939,14.7395052 61.2350104,14.2204067 61.589531,13.9372621 C61.9440516,13.6541175 62.5112846,13.5125452 63.29123,13.5125452 C64.4966001,13.5125452 65.0992851,13.9136667 65.0992851,14.7159098 C65.0992851,15.3057944 64.8747554,16.6743268 64.425696,18.8215068 C63.858463,21.4169991 63.5748465,23.1748553 63.5748465,24.0950753 C63.5748465,24.8029369 63.6693853,25.3456307 63.858463,25.7231569 C64.0475406,26.1006831 64.3666092,26.2894461 64.8156686,26.2894461 C65.2410934,26.2894461 65.7728743,25.9945038 66.4110114,25.4046192 C67.0491486,24.8147346 67.8999981,23.8827169 68.9635599,22.6085661 C69.2471764,22.2782307 69.566245,22.113063 69.9207656,22.113063 C70.2280168,22.113063 70.4702726,22.2546353 70.6475329,22.5377799 C70.8247932,22.8209246 70.9134234,23.2102484 70.9134234,23.7057515 C70.9134234,24.6495669 70.6888936,25.3810238 70.2398342,25.9001223 C67.8999981,28.7551639 65.7137876,30.1826847 63.6812027,30.1826847 Z" id="形状" fill="url(#linearGradient-4)"></path>
            <path d="M74.5554116,30.9451946 C73.3297899,30.9451946 72.3928965,30.6617749 71.7447312,30.0949355 C71.0965659,29.5280961 70.7724832,28.8904018 70.7724832,28.1818526 C70.7724832,27.5677766 70.9963949,27.0363646 71.4442182,26.5876168 C71.8920415,26.1388689 72.5519916,25.914495 73.4240685,25.914495 C73.7304739,25.914495 74.089911,25.9440179 74.5023799,26.0030637 C74.9148487,26.0621094 75.2271465,26.1034415 75.4392733,26.1270598 C75.4157037,25.5129838 75.2801782,24.9343352 75.0326969,24.3911141 C74.7852156,23.8478931 74.4729178,23.3223857 74.0958034,22.8145921 C73.7186891,22.3067985 73.3651444,21.8639552 73.0351693,21.4860623 C72.3045103,22.8795424 71.5797436,24.0368395 70.8608694,24.9579535 C70.1419952,25.8790675 69.3583044,26.7529449 68.5097971,27.5795857 C68.0855435,28.0047153 67.6377202,28.21728 67.1663273,28.21728 C66.7892129,28.21728 66.4828075,28.0814748 66.247111,27.8098642 C66.0114146,27.5382537 65.8935663,27.2016928 65.8935663,26.8001815 C65.8935663,26.3278154 66.0585539,25.8908767 66.3885289,25.4893655 L66.848137,24.9225261 C68.1444676,23.3164811 69.1226079,21.9938559 69.7825581,20.9546503 C70.2068117,20.2697194 70.6369578,19.4548878 71.0729962,18.5101555 C71.5090347,17.5654231 72.0805986,16.2782253 72.787688,14.6485621 C73.2355113,13.6093565 74.1665124,13.0897538 75.5806912,13.0897538 C76.2406413,13.0897538 76.7002494,13.1487995 76.9595155,13.2668911 C77.2187817,13.3849826 77.3484147,13.5739291 77.3484147,13.8337305 C77.3484147,13.9754403 77.3012754,14.1998142 77.2069968,14.5068523 C77.1127183,14.8138903 76.9830852,15.1209283 76.8180977,15.4279663 C76.393844,16.2782253 76.1817172,16.9985837 76.1817172,17.5890414 C76.1817172,17.9433161 76.3054578,18.3330181 76.5529391,18.7581477 C76.8004204,19.1832772 77.1834272,19.7146892 77.7019594,20.3523835 C78.4561881,21.3443524 79.0277521,22.1887069 79.4166512,22.885447 C79.8055504,23.5821871 80,24.3438775 80,25.1705183 C80,26.1624872 79.7701959,27.101315 79.3105878,27.9870015 C78.8509797,28.8726881 78.2087068,29.5871419 77.3837692,30.130363 C76.5588316,30.6735841 75.6160457,30.9451946 74.5554116,30.9451946 Z" id="路径" fill="url(#linearGradient-5)"></path>
        </g>
    </g>
</svg>