<?xml version="1.0" encoding="UTF-8"?>
<svg width="100px" height="39px" viewBox="0 0 100 39" version="1.1" xmlns="http://www.w3.org/2000/svg" xmlns:xlink="http://www.w3.org/1999/xlink">
    <title>Oasis备份 12</title>
    <defs>
        <linearGradient x1="50%" y1="0%" x2="50%" y2="100%" id="linearGradient-1">
            <stop stop-color="#8BE240" offset="0%"></stop>
            <stop stop-color="#3265D4" offset="100%"></stop>
        </linearGradient>
        <linearGradient x1="50%" y1="0%" x2="50%" y2="100%" id="linearGradient-2">
            <stop stop-color="#8BE240" offset="0%"></stop>
            <stop stop-color="#3265D4" offset="100%"></stop>
        </linearGradient>
        <linearGradient x1="50%" y1="0%" x2="50%" y2="100%" id="linearGradient-3">
            <stop stop-color="#8BE240" offset="0.0928758741%"></stop>
            <stop stop-color="#3265D4" offset="99.9590253%"></stop>
        </linearGradient>
        <linearGradient x1="50%" y1="0%" x2="50%" y2="100%" id="linearGradient-4">
            <stop stop-color="#8BE240" offset="0%"></stop>
            <stop stop-color="#3265D4" offset="100%"></stop>
        </linearGradient>
        <linearGradient x1="50%" y1="0%" x2="50%" y2="100%" id="linearGradient-5">
            <stop stop-color="#8BE240" offset="0%"></stop>
            <stop stop-color="#3265D4" offset="100%"></stop>
        </linearGradient>
    </defs>
    <g id="Logo" stroke="none" stroke-width="1" fill="none" fill-rule="evenodd">
        <g id="Oasis备份-12" fill-rule="nonzero">
            <path d="M13.9858415,37.7283558 C11.3598079,37.7283558 8.99195186,37.1386199 6.88227325,35.9591481 C4.77259463,34.7796762 3.09812944,33.0473269 1.85887766,30.7621002 C0.619625887,28.4768735 0,25.7419732 0,22.5573992 C0,18.0754061 0.818791351,14.1241754 2.45637405,10.703707 C4.09395675,7.28323868 6.32165935,4.64417041 9.13948183,2.78650225 C11.9573043,0.928834083 15.0775633,0 18.5002586,0 C21.1262921,0 23.4941482,0.589735926 25.6038268,1.76920778 C27.7135054,2.94867963 29.3879706,4.68102891 30.6272224,6.96625562 C31.8664742,9.25148233 32.4861001,11.9863827 32.4861001,15.1709567 C32.4861001,19.6529497 31.6673087,23.6041804 30.029726,27.0246488 C28.3921433,30.4451172 26.1644407,33.0841854 23.3466182,34.9418536 C20.5287958,36.7995218 17.4085368,37.7283558 13.9858415,37.7283558 Z M14.4284314,32.5091929 C16.729899,32.5091929 18.7584361,31.8015098 20.5140428,30.3861436 C22.2696494,28.9707773 23.6195487,27.0025337 24.5637405,24.4814126 C25.5079324,21.9602915 25.9800283,19.107444 25.9800283,15.92287 C25.9800283,12.4139412 25.2423784,9.75275787 23.7670787,7.9393199 C22.2917789,6.12588193 20.3886423,5.21916294 18.0576687,5.21916294 C15.7857071,5.21916294 13.7792995,5.91947435 12.0384458,7.32009718 C10.2975921,8.72072 8.94031637,10.681592 7.96661855,13.202713 C6.99292073,15.7238341 6.50607181,18.5914251 6.50607181,21.8054858 C6.50607181,25.3144146 7.24372168,27.975598 8.71902141,29.7890359 C10.1943211,31.6024739 12.0974578,32.5091929 14.4284314,32.5091929 Z" id="形状" fill="url(#linearGradient-1)"></path>
            <path d="M39.9298103,37.7283558 C38.1020248,37.7283558 36.6427443,37.0658951 35.5519691,35.7409737 C34.4611938,34.4160522 33.9158062,32.678933 33.9158062,30.5296159 C33.9158062,28.1742 34.4611938,25.9439156 35.5519691,23.8387609 C36.6427443,21.7336096 38.0946547,20.0406544 39.9077,18.759897 C41.7207454,17.4791396 43.6443423,16.8387609 45.6784908,16.8387609 C46.3270598,16.8387609 46.7618959,16.9638924 46.982999,17.2141553 C47.2041021,17.4644183 47.3883547,17.9134194 47.5357567,18.5611588 C48.1548454,18.443388 48.8034145,18.3845026 49.481464,18.3845026 C50.9260042,18.3845026 51.6482743,18.8997498 51.6482743,19.9302443 C51.6482743,20.548541 51.4271712,22.0206759 50.984965,24.3466492 C50.3069155,27.7325595 49.9678908,30.0879755 49.9678908,31.4128969 C49.9678908,31.8545374 50.0784423,32.2078498 50.2995454,32.4728341 C50.5206485,32.7378184 50.8080825,32.8703105 51.1618475,32.8703105 C51.7219753,32.8703105 52.4000248,32.5096374 53.1959959,31.7882913 C53.9919671,31.0669452 55.0680021,29.8965979 56.4241011,28.2772495 C56.777866,27.8650517 57.1758516,27.6589528 57.6180578,27.6589528 C58.0013031,27.6589528 58.3034774,27.835609 58.5245805,28.1889214 C58.7456836,28.5422338 58.8562351,29.0280383 58.8562351,29.646335 C58.8562351,30.8240429 58.5761712,31.7367666 58.0160434,32.384506 C56.8073464,33.8860836 55.5249485,35.1521197 54.1688495,36.1826141 C52.8127506,37.2131086 51.5008722,37.7283558 50.2332145,37.7283558 C49.2603609,37.7283558 48.3685784,37.3971255 47.557867,36.7346647 C46.7471557,36.072204 46.1354371,35.166841 45.7227114,34.0185758 C44.1897299,36.4917625 42.2587629,37.7283558 39.9298103,37.7283558 Z M41.5217526,33.2677869 C42.1703217,33.2677869 42.7894103,32.8850319 43.3790186,32.1195217 C43.9686268,31.3540115 44.3960928,30.3382384 44.6614165,29.0722023 L46.2975794,20.9460174 C45.0594021,20.9754601 43.9170361,21.4391826 42.8704815,22.337185 C41.8239268,23.2351873 40.9911052,24.4202559 40.3720165,25.8923909 C39.7529279,27.3645258 39.4433835,28.9249888 39.4433835,30.57378 C39.4433835,31.4865037 39.6276361,32.1636857 39.9961413,32.6053262 C40.3646464,33.0469667 40.8731835,33.2677869 41.5217526,33.2677869 Z" id="形状" fill="url(#linearGradient-2)"></path>
            <path d="M63.5062121,38.6814932 C61.9716291,38.6814932 60.7985584,38.3272186 59.9870001,37.6186694 C59.1754418,36.9101202 58.7696627,36.1130023 58.7696627,35.2273157 C58.7696627,34.4597207 59.0500192,33.7954558 59.6107322,33.234521 C60.1714452,32.6735862 60.9977591,32.3931188 62.0896739,32.3931188 C62.4733197,32.3931188 62.9233656,32.4300224 63.4398118,32.5038296 C63.956258,32.5776368 64.3472816,32.6293018 64.6128825,32.6588247 C64.5833713,31.8912297 64.4136818,31.167919 64.1038141,30.4888927 C63.7939464,29.8098663 63.4029228,29.1529821 62.9307434,28.5182401 C62.4585641,27.8834981 62.0158959,27.329944 61.6027389,26.8575778 C60.6878914,28.599428 59.7804216,30.0460494 58.8803297,31.1974419 C57.9802378,32.3488344 56.99899,33.4411812 55.9365864,34.4744821 C55.4053846,35.0058941 54.8446716,35.2716 54.2544473,35.2716 C53.782268,35.2716 53.3986222,35.1018434 53.1035101,34.7623303 C52.808398,34.4228171 52.6608419,34.002116 52.6608419,33.5002269 C52.6608419,32.9097692 52.8674204,32.3635959 53.2805774,31.8617068 L53.856046,31.1531576 C55.4791626,29.1456014 56.7038779,27.4923198 57.5301918,26.1933129 C58.0318824,25.3371492 58.6221066,24.1931375 59.3008645,22.7612775 C59.9796223,21.3294176 60.6436246,19.8458926 61.2928712,18.3107026 C61.8535842,17.0116957 63.0192771,16.3621922 64.7899498,16.3621922 C65.6162637,16.3621922 66.1917323,16.4359994 66.5163556,16.5836139 C66.8409789,16.7312283 67.0032906,16.9674114 67.0032906,17.2921631 C67.0032906,17.4693004 66.9442682,17.7497678 66.8262233,18.1335653 C66.7081785,18.5173628 66.5458668,18.9011603 66.3392883,19.2849578 C65.8080865,20.3477817 65.5424856,21.2482297 65.5424856,21.9863018 C65.5424856,22.4291451 65.6974195,22.9162727 66.0072872,23.4476846 C66.3171549,23.9790965 66.7967121,24.6433614 67.4459588,25.4404793 C68.3903175,26.6804405 69.1059644,27.7358836 69.5928994,28.6068088 C70.0798344,29.4777339 70.3233019,30.4298469 70.3233019,31.4631479 C70.3233019,31.7583767 70.2937906,32.1716971 70.2347682,32.703109 C71.6808176,32.1421742 73.3777122,30.6512685 75.3254522,28.230392 C75.6795867,27.8170716 76.077988,27.6104114 76.5206562,27.6104114 C76.904302,27.6104114 77.2067919,27.7875487 77.428126,28.1418233 C77.64946,28.4960979 77.7601271,28.9832255 77.7601271,29.6032061 C77.7601271,30.7250758 77.4797706,31.6402852 76.9190576,32.3488344 C75.443497,34.1792533 74.0343367,35.4265952 72.6915766,36.0908601 C71.3488164,36.755125 69.6888108,37.1167803 67.7115597,37.1758261 C66.5311112,38.1796042 65.1293287,38.6814932 63.5062121,38.6814932 Z" id="路径" fill="url(#linearGradient-3)"></path>
            <path d="M79.9560239,13.9707526 C78.7152018,13.9707526 77.7845851,13.6831838 77.164174,13.1080463 C76.543763,12.5329088 76.2335574,11.729191 76.2335574,10.6968929 C76.2335574,9.66459481 76.639779,8.80188855 77.4522221,8.10877411 C78.2646651,7.41565968 79.2765261,7.06910246 80.4878049,7.06910246 C81.5809101,7.06910246 82.4672117,7.33455054 83.1467095,7.86544671 C83.8262074,8.39634287 84.1659563,9.14844576 84.1659563,10.1217554 C84.1659563,11.3015246 83.7818923,12.2379665 83.0137643,12.9310809 C82.2456363,13.6241954 81.2263895,13.9707526 79.9560239,13.9707526 Z M79.6015033,37.7283558 C77.6811833,37.7283558 76.2852583,37.0499885 75.4137285,35.6932539 C74.5421986,34.3365192 74.1064337,32.5373711 74.1064337,30.2958096 C74.1064337,28.9685692 74.2763081,27.2652773 74.6160571,25.185934 C74.955806,23.1065907 75.3915709,21.167345 75.9233519,19.3681969 C76.1892423,18.4243815 76.543763,17.7755084 76.9869137,17.4215776 C77.4300645,17.0676469 78.1391058,16.8906815 79.1140375,16.8906815 C80.6207501,16.8906815 81.3741064,17.3920834 81.3741064,18.3948873 C81.3741064,19.132243 81.0934443,20.8429085 80.53212,23.5268835 C79.8230787,26.7712489 79.4685581,28.9685692 79.4685581,30.1188442 C79.4685581,31.0036711 79.5867316,31.6820384 79.8230787,32.1539461 C80.0594258,32.6258538 80.4582615,32.8618077 81.0195858,32.8618077 C81.5513667,32.8618077 82.2160929,32.4931298 83.0137643,31.755774 C83.8114357,31.0184182 84.8749976,29.8533961 86.2044499,28.2607076 C86.5589705,27.8477884 86.9578062,27.6413288 87.400957,27.6413288 C87.785021,27.6413288 88.0878407,27.8182941 88.3094161,28.1722249 C88.5309915,28.5261557 88.6417792,29.0128105 88.6417792,29.6321894 C88.6417792,30.8119586 88.361117,31.7262798 87.7997927,32.3751529 C84.8749976,35.9439548 82.1422344,37.7283558 79.6015033,37.7283558 Z" id="形状" fill="url(#linearGradient-4)"></path>
            <path d="M93.1942645,38.6814932 C91.6622374,38.6814932 90.4911206,38.3272186 89.680914,37.6186694 C88.8707073,36.9101202 88.465604,36.1130023 88.465604,35.2273157 C88.465604,34.4597207 88.7454936,33.7954558 89.3052727,33.234521 C89.8650518,32.6735862 90.6899895,32.3931188 91.7800856,32.3931188 C92.1630924,32.3931188 92.6123888,32.4300224 93.1279748,32.5038296 C93.6435608,32.5776368 94.0339331,32.6293018 94.2990917,32.6588247 C94.2696296,31.8912297 94.1002228,31.167919 93.7908711,30.4888927 C93.4815195,29.8098663 93.0911472,29.1529821 92.6197543,28.5182401 C92.1483614,27.8834981 91.7064305,27.329944 91.2939617,26.8575778 C90.3806379,28.599428 89.4746796,30.0460494 88.5760868,31.1974419 C87.677494,32.3488344 86.6978805,33.4411812 85.6372464,34.4744821 C85.1069294,35.0058941 84.5471502,35.2716 83.9579091,35.2716 C83.4865161,35.2716 83.1035094,35.1018434 82.8088888,34.7623303 C82.5142682,34.4228171 82.3669579,34.002116 82.3669579,33.5002269 C82.3669579,32.9097692 82.5731923,32.3635959 82.9856611,31.8617068 L83.5601713,31.1531576 C85.1805845,29.1456014 86.4032599,27.4923198 87.2281976,26.1933129 C87.7585146,25.3371492 88.2961972,24.3186097 88.8412453,23.1376943 C89.3862934,21.9567789 90.1007483,20.3477817 90.9846101,18.3107026 C91.5443892,17.0116957 92.7081405,16.3621922 94.475864,16.3621922 C95.3008016,16.3621922 95.8753118,16.4359994 96.1993944,16.5836139 C96.5234771,16.7312283 96.6855184,16.9674114 96.6855184,17.2921631 C96.6855184,17.4693004 96.6265943,17.7497678 96.5087461,18.1335653 C96.3908978,18.5173628 96.2288565,18.9011603 96.0226221,19.2849578 C95.492305,20.3477817 95.2271465,21.2482297 95.2271465,21.9863018 C95.2271465,22.4291451 95.3818223,22.9162727 95.6911739,23.4476846 C96.0005255,23.9790965 96.479284,24.6433614 97.1274493,25.4404793 C98.0702352,26.6804405 98.7846901,27.7358836 99.270814,28.6068088 C99.756938,29.4777339 100,30.4298469 100,31.4631479 C100,32.703109 99.7127449,33.8766437 99.1382348,34.9837519 C98.5637246,36.0908601 97.7608835,36.9839274 96.7297115,37.6629537 C95.6985394,38.3419801 94.5200571,38.6814932 93.1942645,38.6814932 Z" id="路径" fill="url(#linearGradient-5)"></path>
        </g>
    </g>
</svg>