<?xml version="1.0" encoding="UTF-8"?>
<svg width="60px" height="24px" viewBox="0 0 60 24" version="1.1" xmlns="http://www.w3.org/2000/svg" xmlns:xlink="http://www.w3.org/1999/xlink">
    <title>Oasis备份 13</title>
    <defs>
        <linearGradient x1="50%" y1="0%" x2="50%" y2="100%" id="linearGradient-1">
            <stop stop-color="#8BE240" offset="0%"></stop>
            <stop stop-color="#3265D4" offset="100%"></stop>
        </linearGradient>
        <linearGradient x1="50%" y1="0%" x2="50%" y2="100%" id="linearGradient-2">
            <stop stop-color="#8BE240" offset="0%"></stop>
            <stop stop-color="#3265D4" offset="100%"></stop>
        </linearGradient>
        <linearGradient x1="50%" y1="0%" x2="50%" y2="100%" id="linearGradient-3">
            <stop stop-color="#8BE240" offset="0.0928758741%"></stop>
            <stop stop-color="#3265D4" offset="99.9590253%"></stop>
        </linearGradient>
        <linearGradient x1="50%" y1="0%" x2="50%" y2="100%" id="linearGradient-4">
            <stop stop-color="#8BE240" offset="0%"></stop>
            <stop stop-color="#3265D4" offset="100%"></stop>
        </linearGradient>
        <linearGradient x1="50%" y1="0%" x2="50%" y2="100%" id="linearGradient-5">
            <stop stop-color="#8BE240" offset="0%"></stop>
            <stop stop-color="#3265D4" offset="100%"></stop>
        </linearGradient>
    </defs>
    <g id="Logo" stroke="none" stroke-width="1" fill="none" fill-rule="evenodd">
        <g id="Oasis备份-13" fill-rule="nonzero">
            <path d="M8.39150487,22.6370135 C6.81588476,22.6370135 5.39517112,22.2831719 4.12936395,21.5754888 C2.86355678,20.8678057 1.85887766,19.8283962 1.1153266,18.4572601 C0.371775532,17.0861241 0,15.4451839 0,13.5344395 C0,10.8452437 0.49127481,8.47450525 1.47382443,6.42222423 C2.45637405,4.36994321 3.79299561,2.78650225 5.4836891,1.67190135 C7.17438259,0.55730045 9.04653795,0 11.1001552,0 C12.6757753,0 14.0964889,0.353841555 15.3622961,1.06152467 C16.6281033,1.76920778 17.6327824,2.80861735 18.3763335,4.17975337 C19.1198845,5.5508894 19.49166,7.19182961 19.49166,9.10257401 C19.49166,11.7917698 19.0003852,14.1625083 18.0178356,16.2147893 C17.035286,18.2670703 15.6986644,19.8505113 14.0079709,20.9651122 C12.3172775,22.0797131 10.4451221,22.6370135 8.39150487,22.6370135 Z M8.65705882,19.5055157 C10.0379394,19.5055157 11.2550616,19.0809059 12.3084257,18.2316861 C13.3617897,17.3824664 14.1717292,16.2015202 14.7382443,14.6888476 C15.3047594,13.1761749 15.588017,11.4644664 15.588017,9.55372199 C15.588017,7.44836474 15.145427,5.85165472 14.2602472,4.76359194 C13.3750674,3.67552916 12.2331854,3.13149776 10.8346012,3.13149776 C9.47142427,3.13149776 8.26757969,3.55168461 7.22306748,4.39205831 C6.17855527,5.232432 5.36418982,6.40895517 4.77997113,7.92162782 C4.19575244,9.43430047 3.90364309,11.154855 3.90364309,13.0832915 C3.90364309,15.1886488 4.34623301,16.7853588 5.23141285,17.8734216 C6.11659269,18.9614843 7.25847468,19.5055157 8.65705882,19.5055157 Z" id="形状" fill="url(#linearGradient-1)"></path>
            <path d="M23.9578862,22.6370135 C22.8612149,22.6370135 21.9856466,22.2395371 21.3311815,21.4445842 C20.6767163,20.6496313 20.3494837,19.6073598 20.3494837,18.3177696 C20.3494837,16.90452 20.6767163,15.5663493 21.3311815,14.3032576 C21.9856466,13.0401658 22.8567928,12.0243927 23.94462,11.2559382 C25.0324472,10.4874838 26.1866054,10.1032566 27.4070945,10.1032566 C27.7962359,10.1032566 28.0571375,10.1783354 28.1897994,10.3284932 C28.3224613,10.478651 28.4330128,10.7480517 28.521454,11.1366953 C28.8929072,11.0660328 29.2820487,11.0307016 29.6888784,11.0307016 C30.5556025,11.0307016 30.9889646,11.3398499 30.9889646,11.9581466 C30.9889646,12.3291246 30.8563027,13.2124056 30.590979,14.6079895 C30.1841493,16.6395357 29.9807345,18.0527853 29.9807345,18.8477381 C29.9807345,19.1127224 30.0470654,19.3247099 30.1797272,19.4837004 C30.3123891,19.642691 30.4848495,19.7221863 30.6971085,19.7221863 C31.0331852,19.7221863 31.4400149,19.5057825 31.9175976,19.0729748 C32.3951802,18.6401671 33.0408013,17.9379587 33.8544606,16.9663497 C34.0667196,16.719031 34.305511,16.5953717 34.5708347,16.5953717 C34.8007819,16.5953717 34.9820864,16.7013654 35.1147483,16.9133528 C35.2474101,17.1253403 35.3137411,17.416823 35.3137411,17.787801 C35.3137411,18.4944258 35.1457027,19.04206 34.809626,19.4307036 C34.0844079,20.3316502 33.3149691,21.0912718 32.5013097,21.7095685 C31.6876503,22.3278652 30.9005233,22.6370135 30.1399287,22.6370135 C29.5562165,22.6370135 29.021147,22.4382753 28.5347202,22.0407988 C28.0482934,21.6433224 27.6812623,21.1001046 27.4336268,20.4111455 C26.513838,21.8950575 25.3552577,22.6370135 23.9578862,22.6370135 Z M24.9130516,19.9606722 C25.302193,19.9606722 25.6736462,19.7310191 26.0274112,19.271713 C26.3811761,18.8124069 26.6376557,18.202943 26.7968499,17.4433214 L27.7785476,12.5676105 C27.0356413,12.5852761 26.3502217,12.8635096 25.7222889,13.402311 C25.0943561,13.9411124 24.5946631,14.6521535 24.2232099,15.5354345 C23.8517567,16.4187155 23.6660301,17.3549933 23.6660301,18.344268 C23.6660301,18.8919022 23.7765817,19.2982114 23.9976848,19.5631957 C24.2187878,19.82818 24.5239101,19.9606722 24.9130516,19.9606722 Z" id="形状" fill="url(#linearGradient-2)"></path>
            <path d="M38.1037272,23.2088959 C37.1829774,23.2088959 36.4791351,22.9963312 35.9922001,22.5712016 C35.5052651,22.1460721 35.2617976,21.6678014 35.2617976,21.1363894 C35.2617976,20.6758324 35.4300115,20.2772735 35.7664393,19.9407126 C36.1028671,19.6041517 36.5986555,19.4358713 37.2538044,19.4358713 C37.4839918,19.4358713 37.7540194,19.4580134 38.0638871,19.5022977 C38.3737548,19.5465821 38.6083689,19.5775811 38.7677295,19.5952948 C38.7500228,19.1347378 38.6482091,18.7007514 38.4622885,18.2933356 C38.2763678,17.8859198 38.0417537,17.4917893 37.7584461,17.1109441 C37.4751384,16.7300988 37.2095375,16.3979664 36.9616434,16.1145467 C36.4127348,17.1596568 35.868253,18.0276296 35.3281978,18.7184651 C34.7881427,19.4093007 34.199394,20.0647087 33.5619518,20.6846893 C33.2432307,21.0035364 32.9068029,21.16296 32.5526684,21.16296 C32.2693608,21.16296 32.0391733,21.0611061 31.8621061,20.8573982 C31.6850388,20.6536903 31.5965052,20.4012696 31.5965052,20.1001362 C31.5965052,19.7458615 31.7204522,19.4181575 31.9683464,19.1170241 L32.3136276,18.6918945 C33.2874976,17.4873608 34.0223267,16.4953919 34.5181151,15.7159877 C34.8191294,15.2022895 35.173264,14.5158825 35.5805187,13.6567665 C35.9877734,12.7976506 36.3861747,11.9075356 36.7757227,10.9864216 C37.1121505,10.2070174 37.8115662,9.81731533 38.8739699,9.81731533 C39.3697582,9.81731533 39.7150394,9.86159966 39.9098134,9.95016831 C40.1045874,10.038737 40.2019744,10.1804468 40.2019744,10.3752979 C40.2019744,10.4815802 40.1665609,10.6498607 40.095734,10.8801392 C40.0249071,11.1104177 39.9275201,11.3406962 39.803573,11.5709747 C39.4848519,12.208669 39.3254914,12.7489378 39.3254914,13.1917811 C39.3254914,13.457487 39.4184517,13.7497636 39.6043723,14.0686108 C39.790293,14.3874579 40.0780273,14.7860169 40.4675753,15.2642876 C41.0341905,16.0082643 41.4635786,16.6415302 41.7557396,17.1640853 C42.0479006,17.6866403 42.1939811,18.2579081 42.1939811,18.8778887 C42.1939811,19.055026 42.1762744,19.3030183 42.1408609,19.6218654 C43.0084905,19.2853045 44.0266273,18.3907611 45.1952713,16.9382352 C45.407752,16.6902429 45.6467928,16.5662468 45.9123937,16.5662468 C46.1425812,16.5662468 46.3240751,16.6725292 46.4568756,16.885094 C46.589676,17.0976588 46.6560763,17.3899353 46.6560763,17.7619237 C46.6560763,18.4350455 46.4878623,18.9841711 46.1514345,19.4093007 C45.2660982,20.507552 44.420602,21.2559571 43.6149459,21.6545161 C42.8092899,22.053075 41.8132865,22.2700682 40.6269358,22.3054957 C39.9186667,22.9077625 39.0775972,23.2088959 38.1037272,23.2088959 Z" id="路径" fill="url(#linearGradient-3)"></path>
            <path d="M47.9736144,8.38245154 C47.2291211,8.38245154 46.6707511,8.20991029 46.2985044,7.86482779 C45.9262578,7.51974528 45.7401344,7.0375146 45.7401344,6.41813574 C45.7401344,5.79875689 45.9838674,5.28113313 46.4713332,4.86526447 C46.9587991,4.44939581 47.5659157,4.24146148 48.2926829,4.24146148 C48.9485461,4.24146148 49.480327,4.40073033 49.8880257,4.71926802 C50.2957244,5.03780572 50.4995738,5.48906746 50.4995738,6.07305324 C50.4995738,6.78091479 50.2691354,7.34277989 49.8082586,7.75864855 C49.3473818,8.17451721 48.7358337,8.38245154 47.9736144,8.38245154 Z M47.760902,22.6370135 C46.60871,22.6370135 45.771155,22.2299931 45.2482371,21.4159523 C44.7253192,20.6019115 44.4638602,19.5224227 44.4638602,18.1774857 C44.4638602,17.3811415 44.5657849,16.3591664 44.7696342,15.1115604 C44.9734836,13.8639544 45.2349426,12.700407 45.5540111,11.6209181 C45.7135454,11.0546289 45.9262578,10.665305 46.1921482,10.4529466 C46.4580387,10.2405881 46.8834635,10.1344089 47.4684225,10.1344089 C48.3724501,10.1344089 48.8244639,10.43525 48.8244639,11.0369324 C48.8244639,11.4793458 48.6560666,12.5057451 48.319272,14.1161301 C47.8938472,16.0627494 47.6811349,17.3811415 47.6811349,18.0713065 C47.6811349,18.6022027 47.752039,19.0092231 47.8938472,19.2923677 C48.0356555,19.5755123 48.2749569,19.7170846 48.6117515,19.7170846 C48.93082,19.7170846 49.3296557,19.4958779 49.8082586,19.0534644 C50.2868614,18.6110509 50.9249985,17.9120377 51.7226699,16.9564246 C51.9353823,16.708673 52.1746837,16.5847973 52.4405742,16.5847973 C52.6710126,16.5847973 52.8527044,16.6909765 52.9856497,16.9033349 C53.1185949,17.1156934 53.1850675,17.4076863 53.1850675,17.7793136 C53.1850675,18.4871752 53.0166702,19.0357679 52.6798756,19.4250917 C50.9249985,21.5663729 49.2853407,22.6370135 47.760902,22.6370135 Z" id="形状" fill="url(#linearGradient-4)"></path>
            <path d="M55.9165587,23.2088959 C54.9973424,23.2088959 54.2946723,22.9963312 53.8085484,22.5712016 C53.3224244,22.1460721 53.0793624,21.6678014 53.0793624,21.1363894 C53.0793624,20.6758324 53.2472962,20.2772735 53.5831636,19.9407126 C53.9190311,19.6041517 54.4139937,19.4358713 55.0680514,19.4358713 C55.2978554,19.4358713 55.5674333,19.4580134 55.8767849,19.5022977 C56.1861365,19.5465821 56.4203599,19.5775811 56.579455,19.5952948 C56.5617778,19.1347378 56.4601337,18.7007514 56.2745227,18.2933356 C56.0889117,17.8859198 55.8546883,17.4917893 55.5718526,17.1109441 C55.2890168,16.7300988 55.0238583,16.3979664 54.776377,16.1145467 C54.2283827,17.1596568 53.6848077,18.0276296 53.1456521,18.7184651 C52.6064964,19.4093007 52.0187283,20.0647087 51.3823478,20.6846893 C51.0641576,21.0035364 50.7282901,21.16296 50.3747454,21.16296 C50.0919097,21.16296 49.8621056,21.0611061 49.6853333,20.8573982 C49.5085609,20.6536903 49.4201747,20.4012696 49.4201747,20.1001362 C49.4201747,19.7458615 49.5439154,19.4181575 49.7913967,19.1170241 L50.1361028,18.6918945 C51.1083507,17.4873608 51.841956,16.4953919 52.3369185,15.7159877 C52.6551088,15.2022895 52.9777183,14.5911658 53.3047472,13.8826166 C53.631776,13.1740674 54.060449,12.208669 54.590766,10.9864216 C54.9266335,10.2070174 55.6248843,9.81731533 56.6855184,9.81731533 C57.180481,9.81731533 57.5251871,9.86159966 57.7196367,9.95016831 C57.9140862,10.038737 58.011311,10.1804468 58.011311,10.3752979 C58.011311,10.4815802 57.9759566,10.6498607 57.9052476,10.8801392 C57.8345387,11.1104177 57.7373139,11.3406962 57.6135733,11.5709747 C57.295383,12.208669 57.1362879,12.7489378 57.1362879,13.1917811 C57.1362879,13.457487 57.2290934,13.7497636 57.4147044,14.0686108 C57.6003153,14.3874579 57.8875704,14.7860169 58.2764696,15.2642876 C58.8421411,16.0082643 59.270814,16.6415302 59.5624884,17.1640853 C59.8541628,17.6866403 60,18.2579081 60,18.8778887 C60,19.6218654 59.827647,20.3259862 59.4829409,20.9902511 C59.1382348,21.6545161 58.6565301,22.1903564 58.0378269,22.5977722 C57.4191237,23.005188 56.7120343,23.2088959 55.9165587,23.2088959 Z" id="路径" fill="url(#linearGradient-5)"></path>
        </g>
    </g>
</svg>